<svg xmlns="http://www.w3.org/2000/svg" width="16" height="16" viewBox="0 0 16 16">
    <path fill="#FFF" fill-rule="nonzero" d="M14.168 15.094c.258 0 .477-.09.656-.27.18-.18.27-.398.27-.656a.838.838 0 0 0-.281-.645L8.858 7.547l5.954-5.977a.838.838 0 0 0 .28-.644.893.893 0 0 0-.269-.656.893.893 0 0 0-.656-.27.838.838 0 0 0-.645.281L7.547 6.234 1.57.281A.838.838 0 0 0 .926 0 .893.893 0 0 0 .27.27.893.893 0 0 0 0 .926c0 .258.094.472.281.644l5.953 5.977-5.953 5.976a.838.838 0 0 0-.281.645c0 .258.09.477.27.656.18.18.398.27.656.27a.838.838 0 0 0 .644-.281l5.977-5.977 5.976 5.976a.838.838 0 0 0 .645.282z"/>
</svg>
