<svg xmlns="http://www.w3.org/2000/svg" width="120" height="20" viewBox="0 0 120 20">
    <path fill="#FFF" fill-rule="nonzero" d="M6.55 20c1.242 0 2.171-.068 2.788-.204.617-.136 1.135-.375 1.554-.716.42-.342.714-.816.882-1.421.169-.605.253-1.806.253-3.6V7.053c0-1.894-.057-3.165-.173-3.811a3.6 3.6 0 0 0-.863-1.76C10.531.954 9.858.575 8.974.345 8.09.116 6.394 0 3.886 0H0v20h6.55zm-1.357-3.422V3.422c.568 0 .954.06 1.16.179.205.12.337.307.395.562.057.255.086.836.086 1.742v7.77c0 1.334-.086 2.152-.26 2.452-.172.3-.632.451-1.38.451zM19.157 20v-9.018c.716 0 1.158.128 1.326.383.169.255.253.918.253 1.989V20h4.823v-5.275c0-1.614-.043-2.6-.13-2.958-.086-.359-.306-.752-.66-1.18-.353-.428-1.044-.77-2.072-1.026 1.135-.107 1.896-.428 2.282-.963.387-.535.58-1.581.58-3.138 0-1.705-.273-2.946-.82-3.724C24.192.957 23.485.474 22.617.284 21.75.094 20.09 0 17.64 0h-3.676v20h5.193zm0-12.13V3.421c.6 0 1.014.099 1.24.296.226.198.339.614.339 1.248v1.1c0 .88-.117 1.402-.352 1.562-.234.16-.643.241-1.227.241zM36.575 20v-4.002h-3.812V11.6h3.244V7.795h-3.244V4.002h3.466V0h-8.66v20h9.006zm5.687 0l.308-3.595h1.863L44.692 20h5.316L47.035 0h-7.512l-2.64 20h5.379zm2.023-7.14h-1.777c.132-1.77.46-4.567.987-8.388.263 3.327.526 6.123.79 8.388zM55.435 20V6.807L57.349 20h3.22L62.38 6.498V20h4.54V0h-6.773l-1.184 9.34-.716-5.09c-.222-1.631-.431-3.048-.629-4.25h-6.723v20h4.54zm20.947 0V4.002h3.083V0H68.117v4.002h3.071V20h5.194zm13.273 0v-4.002h-3.812V11.6h3.244V7.795h-3.244V4.002h3.466V0h-8.66v20h9.006zm5.686 0l.309-3.595h1.862l.26 3.595h5.316l-2.973-20h-7.512l-2.64 20h5.378zm2.023-7.14h-1.776c.132-1.77.46-4.567.987-8.388.263 3.327.526 6.123.79 8.388zM108.516 20V6.807L110.428 20h3.22l1.813-13.502V20H120V0h-6.772l-1.184 9.34-.716-5.09c-.222-1.631-.432-3.048-.629-4.25h-6.723v20h4.54z"/>
</svg>
